<mxfile host="app.diagrams.net" modified="2024-06-16T21:43:36.777Z" agent="Mozilla/5.0 (Windows NT 10.0; Win64; x64) AppleWebKit/537.36 (KHTML, like Gecko) Chrome/125.0.0.0 Safari/537.36 Edg/125.0.0.0" etag="jZWNlgKJU2cyCpEzyrCy" version="24.5.4" type="device">
  <diagram name="Page-1" id="0EZVH8jCmIeQsePKAo31">
    <mxGraphModel dx="983" dy="523" grid="1" gridSize="10" guides="1" tooltips="1" connect="1" arrows="1" fold="1" page="1" pageScale="1" pageWidth="850" pageHeight="1100" math="0" shadow="0">
      <root>
        <mxCell id="0" />
        <mxCell id="1" parent="0" />
        <mxCell id="B7gYz0UqtBhULutnpche-1" value="start state" style="ellipse;whiteSpace=wrap;html=1;" vertex="1" parent="1">
          <mxGeometry x="110" y="170" width="90" height="60" as="geometry" />
        </mxCell>
        <mxCell id="B7gYz0UqtBhULutnpche-2" value="" style="curved=1;endArrow=classic;html=1;rounded=0;entryX=0.5;entryY=1;entryDx=0;entryDy=0;" edge="1" parent="1" target="B7gYz0UqtBhULutnpche-1">
          <mxGeometry width="50" height="50" relative="1" as="geometry">
            <mxPoint x="70" y="271.27" as="sourcePoint" />
            <mxPoint x="143.26470915516143" y="320.00060294441676" as="targetPoint" />
            <Array as="points">
              <mxPoint x="120" y="271.27" />
              <mxPoint x="120" y="260" />
            </Array>
          </mxGeometry>
        </mxCell>
        <mxCell id="B7gYz0UqtBhULutnpche-3" value="start/rst" style="edgeLabel;html=1;align=center;verticalAlign=middle;resizable=0;points=[];" vertex="1" connectable="0" parent="B7gYz0UqtBhULutnpche-2">
          <mxGeometry x="-0.5824" y="-6" relative="1" as="geometry">
            <mxPoint x="28" y="-17" as="offset" />
          </mxGeometry>
        </mxCell>
        <mxCell id="B7gYz0UqtBhULutnpche-5" value="" style="endArrow=classic;html=1;rounded=0;exitX=1;exitY=0.5;exitDx=0;exitDy=0;entryX=0;entryY=0.5;entryDx=0;entryDy=0;" edge="1" parent="1" source="B7gYz0UqtBhULutnpche-1" target="B7gYz0UqtBhULutnpche-6">
          <mxGeometry width="50" height="50" relative="1" as="geometry">
            <mxPoint x="270" y="150" as="sourcePoint" />
            <mxPoint x="320" y="100" as="targetPoint" />
          </mxGeometry>
        </mxCell>
        <mxCell id="B7gYz0UqtBhULutnpche-7" value="start rows &lt;br&gt;read" style="edgeLabel;html=1;align=center;verticalAlign=middle;resizable=0;points=[];" vertex="1" connectable="0" parent="B7gYz0UqtBhULutnpche-5">
          <mxGeometry x="-0.475" y="1" relative="1" as="geometry">
            <mxPoint x="19" y="1" as="offset" />
          </mxGeometry>
        </mxCell>
        <mxCell id="B7gYz0UqtBhULutnpche-6" value="rowdiff calc&amp;nbsp;&lt;div&gt;state&lt;/div&gt;" style="ellipse;whiteSpace=wrap;html=1;" vertex="1" parent="1">
          <mxGeometry x="270" y="170" width="90" height="60" as="geometry" />
        </mxCell>
        <mxCell id="B7gYz0UqtBhULutnpche-8" value="Next&lt;div&gt;row calculation&lt;/div&gt;" style="ellipse;whiteSpace=wrap;html=1;" vertex="1" parent="1">
          <mxGeometry x="270" y="260" width="90" height="60" as="geometry" />
        </mxCell>
        <mxCell id="B7gYz0UqtBhULutnpche-9" value="" style="endArrow=classic;html=1;rounded=0;exitX=0.5;exitY=1;exitDx=0;exitDy=0;" edge="1" parent="1" source="B7gYz0UqtBhULutnpche-6" target="B7gYz0UqtBhULutnpche-8">
          <mxGeometry width="50" height="50" relative="1" as="geometry">
            <mxPoint x="410" y="310" as="sourcePoint" />
            <mxPoint x="460" y="260" as="targetPoint" />
          </mxGeometry>
        </mxCell>
        <mxCell id="B7gYz0UqtBhULutnpche-12" value="finished row read" style="ellipse;whiteSpace=wrap;html=1;" vertex="1" parent="1">
          <mxGeometry x="425" y="190" width="90" height="60" as="geometry" />
        </mxCell>
        <mxCell id="B7gYz0UqtBhULutnpche-13" value="" style="endArrow=classic;html=1;rounded=0;exitX=0.921;exitY=0.277;exitDx=0;exitDy=0;exitPerimeter=0;entryX=0.008;entryY=0.65;entryDx=0;entryDy=0;entryPerimeter=0;" edge="1" parent="1" source="B7gYz0UqtBhULutnpche-8" target="B7gYz0UqtBhULutnpche-12">
          <mxGeometry width="50" height="50" relative="1" as="geometry">
            <mxPoint x="400" y="320" as="sourcePoint" />
            <mxPoint x="450" y="270" as="targetPoint" />
          </mxGeometry>
        </mxCell>
        <mxCell id="B7gYz0UqtBhULutnpche-14" value="rowdiff==0" style="edgeLabel;html=1;align=center;verticalAlign=middle;resizable=0;points=[];" vertex="1" connectable="0" parent="B7gYz0UqtBhULutnpche-13">
          <mxGeometry x="0.157" relative="1" as="geometry">
            <mxPoint x="-5" y="1" as="offset" />
          </mxGeometry>
        </mxCell>
        <mxCell id="B7gYz0UqtBhULutnpche-15" value="processing&amp;nbsp;&lt;div&gt;state&lt;/div&gt;" style="ellipse;whiteSpace=wrap;html=1;" vertex="1" parent="1">
          <mxGeometry x="370" y="340" width="90" height="60" as="geometry" />
        </mxCell>
        <mxCell id="B7gYz0UqtBhULutnpche-16" value="" style="endArrow=classic;html=1;rounded=0;exitX=1;exitY=1;exitDx=0;exitDy=0;entryX=0;entryY=0;entryDx=0;entryDy=0;" edge="1" parent="1" source="B7gYz0UqtBhULutnpche-8" target="B7gYz0UqtBhULutnpche-15">
          <mxGeometry width="50" height="50" relative="1" as="geometry">
            <mxPoint x="360" y="360" as="sourcePoint" />
            <mxPoint x="410" y="310" as="targetPoint" />
          </mxGeometry>
        </mxCell>
        <mxCell id="B7gYz0UqtBhULutnpche-17" value="rowdiff!=0" style="edgeLabel;html=1;align=center;verticalAlign=middle;resizable=0;points=[];" vertex="1" connectable="0" parent="B7gYz0UqtBhULutnpche-16">
          <mxGeometry x="-0.3536" y="-1" relative="1" as="geometry">
            <mxPoint x="2" as="offset" />
          </mxGeometry>
        </mxCell>
        <mxCell id="B7gYz0UqtBhULutnpche-19" value="" style="curved=1;endArrow=classic;html=1;rounded=0;exitX=0.186;exitY=0.936;exitDx=0;exitDy=0;exitPerimeter=0;entryX=0.958;entryY=0.769;entryDx=0;entryDy=0;entryPerimeter=0;" edge="1" parent="1" source="B7gYz0UqtBhULutnpche-15" target="B7gYz0UqtBhULutnpche-15">
          <mxGeometry width="50" height="50" relative="1" as="geometry">
            <mxPoint x="440" y="480" as="sourcePoint" />
            <mxPoint x="490" y="430" as="targetPoint" />
            <Array as="points">
              <mxPoint x="390" y="430" />
              <mxPoint x="420" y="440" />
              <mxPoint x="440" y="440" />
              <mxPoint x="456" y="440" />
              <mxPoint x="480" y="410" />
            </Array>
          </mxGeometry>
        </mxCell>
        <mxCell id="B7gYz0UqtBhULutnpche-20" value="remainingrowsread &amp;gt;0" style="edgeLabel;html=1;align=center;verticalAlign=middle;resizable=0;points=[];" vertex="1" connectable="0" parent="B7gYz0UqtBhULutnpche-19">
          <mxGeometry x="-0.3101" y="1" relative="1" as="geometry">
            <mxPoint x="15" as="offset" />
          </mxGeometry>
        </mxCell>
        <mxCell id="B7gYz0UqtBhULutnpche-21" value="" style="endArrow=classic;html=1;rounded=0;exitX=0.5;exitY=0;exitDx=0;exitDy=0;entryX=0.5;entryY=1;entryDx=0;entryDy=0;" edge="1" parent="1" source="B7gYz0UqtBhULutnpche-15" target="B7gYz0UqtBhULutnpche-12">
          <mxGeometry width="50" height="50" relative="1" as="geometry">
            <mxPoint x="450" y="330" as="sourcePoint" />
            <mxPoint x="500" y="280" as="targetPoint" />
          </mxGeometry>
        </mxCell>
        <mxCell id="B7gYz0UqtBhULutnpche-22" value="remainingrowsread ==0" style="edgeLabel;html=1;align=center;verticalAlign=middle;resizable=0;points=[];" vertex="1" connectable="0" parent="B7gYz0UqtBhULutnpche-21">
          <mxGeometry x="-0.1831" y="-2" relative="1" as="geometry">
            <mxPoint as="offset" />
          </mxGeometry>
        </mxCell>
        <mxCell id="B7gYz0UqtBhULutnpche-24" value="" style="curved=1;endArrow=classic;html=1;rounded=0;exitX=0.5;exitY=0;exitDx=0;exitDy=0;entryX=0.5;entryY=0;entryDx=0;entryDy=0;" edge="1" parent="1" source="B7gYz0UqtBhULutnpche-12" target="B7gYz0UqtBhULutnpche-6">
          <mxGeometry width="50" height="50" relative="1" as="geometry">
            <mxPoint x="440" y="150" as="sourcePoint" />
            <mxPoint x="490" y="100" as="targetPoint" />
            <Array as="points">
              <mxPoint x="490" y="150" />
              <mxPoint x="360" y="140" />
            </Array>
          </mxGeometry>
        </mxCell>
        <mxCell id="B7gYz0UqtBhULutnpche-25" value="Lastrowread == 0" style="edgeLabel;html=1;align=center;verticalAlign=middle;resizable=0;points=[];" vertex="1" connectable="0" parent="B7gYz0UqtBhULutnpche-24">
          <mxGeometry x="0.2507" y="3" relative="1" as="geometry">
            <mxPoint as="offset" />
          </mxGeometry>
        </mxCell>
        <mxCell id="B7gYz0UqtBhULutnpche-26" value="image read done" style="ellipse;whiteSpace=wrap;html=1;" vertex="1" parent="1">
          <mxGeometry x="550" y="280" width="90" height="60" as="geometry" />
        </mxCell>
        <mxCell id="B7gYz0UqtBhULutnpche-27" value="" style="endArrow=classic;html=1;rounded=0;exitX=1;exitY=0.5;exitDx=0;exitDy=0;entryX=0;entryY=0.5;entryDx=0;entryDy=0;" edge="1" parent="1" source="B7gYz0UqtBhULutnpche-12" target="B7gYz0UqtBhULutnpche-26">
          <mxGeometry width="50" height="50" relative="1" as="geometry">
            <mxPoint x="530" y="300" as="sourcePoint" />
            <mxPoint x="580" y="250" as="targetPoint" />
          </mxGeometry>
        </mxCell>
        <mxCell id="B7gYz0UqtBhULutnpche-28" value="lastrowread == 1" style="edgeLabel;html=1;align=center;verticalAlign=middle;resizable=0;points=[];" vertex="1" connectable="0" parent="B7gYz0UqtBhULutnpche-27">
          <mxGeometry x="-0.4107" y="1" relative="1" as="geometry">
            <mxPoint x="14" y="14" as="offset" />
          </mxGeometry>
        </mxCell>
      </root>
    </mxGraphModel>
  </diagram>
</mxfile>
